# xmcd
#
# Track frame offsets:
#	150
#	13337
#	28145
#	43165
#	58335
#	73012
#	85515
#	99677
#	117590
#	131192
#	147490
#	159905
#
# Disc length: 2375
#
# Revision: 2
# Processed by: cddbd v1.5.1PL0 Copyright (c) Steve Scherf et al.
# Submitted via: CDex 1.50Beta7
# Normalized: r0:TDELIM( - ),TSWAP
#
DISCID=b409450c
DTITLE=Various Artist - Jazz Classics (vol 1)
DYEAR=1998
DGENRE=Jazz
TTITLE0=Duke Ellington - Take the "A" Train
TTITLE1=Erskine Hawkins - Tuxedo Junction
TTITLE2=Artie Shaw - Summit Ridge Drive
TTITLE3=Tommy Dorsey - For Sentimental Reasons
TTITLE4=Fletcher Henderson - Hocus Pocus
TTITLE5=Bunny Berrigan - High Society
TTITLE6=Sidney Bechet - Indian Summer
TTITLE7=Fats Waller - Ain't Misbehavin'
TTITLE8=Louis Armstrong - Do you know what it means to miss New Orleans?
TTITLE9=Glenn Miller - In The Mood
TTITLE10=Django Reinhardt - Djangology
TTITLE11=Benny Goodman - Sing, Sing, Sing
EXTD=YEAR: 1998
EXTT0=
EXTT1=
EXTT2=
EXTT3=
EXTT4=
EXTT5=
EXTT6=
EXTT7=
EXTT8=
EXTT9=
EXTT10=
EXTT11=
PLAYORDER=
